<svg xmlns="http://www.w3.org/2000/svg" xmlns:svgjs="http://svgjs.com/svgjs" xmlns:xlink="http://www.w3.org/1999/xlink" width="288" height="288"><svg xmlns="http://www.w3.org/2000/svg" width="288" height="288" viewBox="0 0 48 48"><polygon fill="#e91e63" points="1 5 7 9 7 29 1 25" class="color29b6f6 svgShape"/><polygon fill="#b11549" points="47 20 41 24 41 37 47 33" class="color0288d1 svgShape"/><polygon fill="#b11549" points="47 6 41 10 41 17 47 13" class="color0288d1 svgShape"/><polygon fill="#b11549" points="35 5 29 9 29 29 35 25" class="color0288d1 svgShape"/><polygon fill="#e91e63" points="1 12 18 23 18 16 1 5" class="color29b6f6 svgShape"/><polygon fill="#b11549" points="35 12 18 23 18 16 35 5" class="color0288d1 svgShape"/><polygon fill="#b11549" points="35 26 18 37 18 30 35 19" class="color0288d1 svgShape"/><polygon fill="#b11549" points="47 34 30 45 30 38 47 27" class="color0288d1 svgShape"/><polygon fill="#e91e63" points="30 37.765 18 30 18 37 30 44.765" class="color29b6f6 svgShape"/></svg></svg>